<?xml version="1.0" encoding="iso-8859-1"?>
<!-- Generator: Adobe Illustrator 24.0.2, SVG Export Plug-In . SVG Version: 6.00 Build 0)  -->
<svg version="1.1" id="Capa_1" xmlns="http://www.w3.org/2000/svg" xmlns:xlink="http://www.w3.org/1999/xlink" x="0px" y="0px"
	 viewBox="0 0 16 16" style="enable-background:new 0 0 16 16;" xml:space="preserve">
<path d="M10.457,10.234L9.043,8.82L8.335,9.527l1.414,1.414l-0.707,0.707l3.182,3.182c0.586,0.586,1.536,0.586,2.121,0
	c0.586-0.586,0.586-1.536,0-2.121l-3.182-3.182L10.457,10.234z"/>
<g>
	<circle style="fill:#FFFFFF;" cx="5.5" cy="6.5" r="4"/>
	<path d="M5.5,3C7.43,3,9,4.57,9,6.5S7.43,10,5.5,10S2,8.43,2,6.5S3.57,3,5.5,3 M5.5,2C3.015,2,1,4.015,1,6.5S3.015,11,5.5,11
		S10,8.985,10,6.5S7.985,2,5.5,2L5.5,2z"/>
</g>
<g>
	<path style="fill:none;stroke:#000000;stroke-width:0.5;stroke-miterlimit:10;" d="M3,6c0,1.658,1.118,3,2.5,3"/>
</g>
</svg>
